<svg width="153" height="30" viewBox="0 0 153 30" fill="none" xmlns="http://www.w3.org/2000/svg">
    <path d="M21.3294 6.13175C19.1882 4.39175 16.6353 3.39746 14 3.39746C11.1177 3.39746 8.31765 4.4746 6.17648 6.54603C4.0353 8.61746 2.80001 11.2689 2.6353 14.2517V14.5832H3.95295V14.3346C4.28236 9.03175 8.72942 4.88889 14 4.88889C16.3882 4.88889 18.6118 5.71746 20.4235 7.20889L20.5059 7.29175L21.4941 6.29746L21.3294 6.13175Z" fill="#29304A"/>
    <path d="M20.0118 19.3061C18.6118 21.2118 16.3882 22.3718 14 22.3718C9.88235 22.3718 6.58823 19.0575 6.58823 14.9146C6.58823 10.8547 9.88235 7.54037 14 7.54037C16.3882 7.54037 18.6118 8.70037 20.0118 10.6061L20.0941 10.7718L21.0823 9.77751L21 9.69465C19.3529 7.45751 16.7176 6.21465 14 6.21465C9.14117 6.13179 5.27058 10.1089 5.27058 14.9146C5.27058 19.8032 9.22352 23.6975 14 23.6975C16.7176 23.6975 19.3529 22.3718 21 20.2175L21.0823 20.1346L20.0941 19.1404L20.0118 19.3061Z" fill="#29304A"/>
    <path d="M22.8941 7.78887C22.6471 7.5403 22.4824 7.20887 22.2353 6.9603L22.1529 6.87744L21.1647 7.87173L21.2471 7.95458C21.4941 8.20316 21.7412 8.45173 21.9059 8.78316L21.9882 8.94887L22.9765 7.95458L22.8941 7.78887Z" fill="#29304A"/>
    <path d="M20.4235 22.7029L20.3412 22.7858C18.5294 24.2772 16.3059 25.1058 13.9177 25.1058C8.64707 25.1058 4.20001 20.9629 3.8706 15.66V15.3286H2.55295V15.66C2.71765 18.56 4.0353 21.2943 6.09412 23.3658C8.2353 25.3543 11.0353 26.5143 13.9177 26.5143C16.6353 26.5143 19.1882 25.52 21.2471 23.78L21.3294 23.6972L20.4235 22.7029Z" fill="#29304A"/>
    <path d="M21.9882 21.0459L21.9059 21.2116C21.7412 21.4602 21.4941 21.7088 21.2471 22.0402L21.1647 22.123L22.1529 23.1173L22.2353 23.0345C22.4824 22.7859 22.7294 22.4545 22.8941 22.2059L22.9765 22.123L21.9882 21.0459Z" fill="#29304A"/>
    <path d="M23.7176 23.0345C21.3294 25.9345 17.7882 27.6745 14 27.6745C7 27.6745 1.4 21.9573 1.4 14.9145C1.4 7.87162 7 2.23734 14 2.23734C17.7882 2.23734 21.3294 3.89448 23.7176 6.87734L23.8 7.04305L24.7882 6.04876L24.7059 5.96591C22.0706 2.73448 18.1176 0.911621 14 0.911621C6.25882 0.911621 0 7.20877 0 14.9973C0 22.7859 6.25882 29.0831 14 29.0831C18.1176 29.0831 22.0706 27.2602 24.7059 24.0288L24.7882 23.9459L23.8 22.9516L23.7176 23.0345Z" fill="#29304A"/>
    <path d="M35.5765 14.666H35.7412V14.4174C35.7412 14.1688 35.7412 14.0031 35.7412 13.7546C35.7412 13.506 35.8235 13.2574 35.9059 13.0917C35.9882 12.8431 36.0706 12.6774 36.1529 12.5117C36.2353 12.346 36.4 12.1803 36.4824 12.0146C36.6471 11.8489 36.8118 11.766 36.9765 11.6831C37.1412 11.6003 37.3882 11.6003 37.6353 11.6003C37.8824 11.6003 38.1294 11.6831 38.3765 11.766C38.5412 11.8489 38.7059 12.0146 38.8706 12.0974C39.0353 12.2631 39.1177 12.4289 39.2 12.6774C39.2824 12.926 39.3647 13.1746 39.3647 13.4231V13.5888H40.8471V13.4231C40.7647 13.0089 40.6824 12.5946 40.5177 12.1803C40.3529 11.8489 40.1882 11.5174 39.8588 11.186C39.6118 10.9374 39.2824 10.6889 38.8706 10.606C38.5412 10.4403 38.0471 10.3574 37.6353 10.3574C37.2235 10.3574 36.8941 10.4403 36.5647 10.5231C36.2353 10.606 35.9882 10.7717 35.7412 11.0203C35.4941 11.186 35.2471 11.4346 35.0824 11.6831C34.9177 11.9317 34.7529 12.2631 34.6706 12.5117C34.5882 12.8431 34.5059 13.1746 34.4235 13.506C34.3412 13.8374 34.3412 14.1688 34.3412 14.5003V14.7488L35.5765 14.666Z" fill="#29304A"/>
    <path d="M39.3647 16.6545V16.8202C39.3647 17.0688 39.2824 17.3173 39.2 17.5659C39.1177 17.8145 39.0353 17.9802 38.8706 18.1459C38.7059 18.3116 38.5412 18.3945 38.3765 18.4773C38.2118 18.5602 37.9647 18.5602 37.6353 18.5602C37.3882 18.5602 37.1412 18.4773 36.9765 18.4773C36.8118 18.3945 36.6471 18.3116 36.4824 18.1459C36.3177 17.9802 36.2353 17.8145 36.1529 17.6488C36.0706 17.483 35.9882 17.2345 35.9059 17.0688C35.8235 16.8202 35.7412 16.5716 35.7412 16.323C35.7412 16.0745 35.7412 15.8259 35.7412 15.6602V15.4116H34.2588V15.6602C34.2588 15.9916 34.2588 16.323 34.3412 16.6545C34.4235 16.9859 34.5059 17.3173 34.5882 17.6488C34.6706 17.9802 34.8353 18.2288 35 18.4773C35.1647 18.7259 35.4118 18.9745 35.6588 19.1402C35.9059 19.3059 36.2353 19.4716 36.4824 19.6373C36.8118 19.7202 37.1412 19.803 37.5529 19.803C37.9647 19.803 38.3765 19.7202 38.7882 19.5545C39.1177 19.3888 39.4471 19.223 39.7765 18.9745C40.0235 18.7259 40.2706 18.3945 40.4353 18.063C40.6 17.7316 40.6824 17.3173 40.7647 16.903V16.7373L39.3647 16.6545Z" fill="#29304A"/>
    <path d="M48.5882 16.7373H47.0235V19.803H48.5882V16.7373Z" fill="#29304A"/>
    <path d="M51.4706 15.7433C51.6353 15.6604 51.8823 15.4947 52.047 15.4119C52.2941 15.2461 52.4588 15.0804 52.6235 14.8319C52.7882 14.5833 52.8706 14.4176 52.9529 14.0861C53.0353 13.8376 53.1176 13.5061 53.1176 13.2576C53.1176 12.7604 53.0353 12.3461 52.8706 12.0147C52.7059 11.6833 52.4588 11.3519 52.2118 11.1033C51.8823 10.8547 51.5529 10.689 51.2235 10.6061C50.8941 10.5233 50.4 10.4404 49.9882 10.4404H47.1882V16.0747H50.1529L51.8823 19.7204H53.3647H53.5294L51.4706 15.7433ZM51.4706 13.9204C51.3882 14.0861 51.2235 14.2519 51.1412 14.4176C50.9765 14.5004 50.8118 14.6661 50.5647 14.749C50.3176 14.8319 50.1529 14.8319 49.9059 14.8319H48.5059V11.6004H49.8235C50.0706 11.6004 50.3176 11.6833 50.5647 11.6833C50.8118 11.6833 50.9765 11.849 51.1412 12.0147C51.3059 12.0976 51.3882 12.3461 51.4706 12.5119C51.5529 12.6776 51.5529 12.9261 51.5529 13.1747C51.6353 13.5061 51.5529 13.6719 51.4706 13.9204Z" fill="#29304A"/>
    <path d="M63.9059 16.3231L66.8706 10.3574H65.2235L63.2471 14.666L61.3529 10.3574H59.7059L62.6706 16.3231H63.9059Z" fill="#29304A"/>
    <path d="M62.5882 19.7204H63.9882V17.1519H62.5882V19.7204Z" fill="#29304A"/>
    <path d="M92.8941 10.3574H85.8118V11.6831H92.8941V10.3574Z" fill="#29304A"/>
    <path d="M88.5294 19.7201H90.0941V12.4287H88.5294V19.7201Z" fill="#29304A"/>
    <path d="M112.988 16.8203H111.506V19.7203H112.988V16.8203Z" fill="#29304A"/>
    <path d="M115.871 15.7433C116.035 15.6604 116.282 15.4947 116.447 15.4119C116.694 15.2461 116.859 15.0804 117.024 14.8319C117.188 14.5833 117.271 14.4176 117.353 14.0861C117.435 13.8376 117.518 13.5061 117.518 13.2576C117.518 12.7604 117.435 12.3461 117.271 12.0147C117.106 11.6833 116.859 11.3519 116.612 11.1033C116.282 10.8547 115.953 10.689 115.624 10.6061C115.212 10.5233 114.8 10.4404 114.388 10.4404H111.588V16.0747H114.553L116.282 19.7204H117.765H117.929L115.871 15.7433ZM115.953 13.9204C115.871 14.0861 115.706 14.2519 115.624 14.4176C115.459 14.5004 115.294 14.6661 115.047 14.749C114.8 14.8319 114.635 14.8319 114.388 14.8319H112.988V11.6004H114.306C114.553 11.6004 114.8 11.6833 115.047 11.6833C115.294 11.6833 115.459 11.849 115.624 12.0147C115.788 12.0976 115.871 12.3461 115.953 12.5119C116.035 12.6776 116.035 12.9261 116.035 13.1747C116.035 13.5061 116.035 13.6719 115.953 13.9204Z" fill="#29304A"/>
    <path d="M124.106 10.3574V11.766H126.247V19.7203H127.812V10.3574H124.106Z" fill="#29304A"/>
    <path d="M140.329 10.3574H138.929V16.6546C138.929 16.9031 138.847 17.1517 138.847 17.4003C138.765 17.6489 138.682 17.8146 138.518 17.9803C138.353 18.146 138.188 18.3117 138.024 18.3946C137.859 18.4774 137.612 18.5603 137.282 18.5603C137.035 18.5603 136.788 18.4774 136.541 18.3946C136.376 18.3117 136.212 18.146 136.047 17.9803C135.882 17.8146 135.8 17.566 135.718 17.4003C135.635 17.1517 135.635 16.9031 135.635 16.6546V15.4117H134.235V16.6546C134.235 17.0689 134.318 17.4831 134.482 17.8974C134.647 18.3117 134.812 18.6431 135.141 18.8917C135.388 19.2231 135.718 19.3889 136.129 19.5546C136.459 19.7203 136.953 19.8031 137.365 19.8031C137.776 19.8031 138.188 19.7203 138.6 19.5546C138.929 19.3889 139.341 19.1403 139.588 18.8917C139.835 18.5603 140.082 18.2289 140.247 17.8974C140.412 17.4831 140.494 17.0689 140.494 16.6546L140.329 10.3574Z" fill="#29304A"/>
    <path d="M135.553 10.3574H134.153V14.666H135.553V10.3574Z" fill="#29304A"/>
    <path d="M151.282 10.3574L149.8 14.5831L148.4 10.3574H146.753V19.7203H148.153V15.9917L148.071 13.4231L149.306 17.2346H150.212L151.529 13.1746V14.666H152.929V10.3574H151.282Z" fill="#29304A"/>
    <path d="M151.529 15.9918V19.7203H152.929V15.4946H151.529V15.9918Z" fill="#29304A"/>
    <path d="M79.2235 12.0146C79.0588 11.6831 78.8118 11.3517 78.5647 11.1031C78.2353 10.8546 77.9882 10.6889 77.5765 10.5231C77.2471 10.4403 76.8353 10.3574 76.4235 10.3574H73.3765V14.086H74.8588V11.6003H76.5059C76.7529 11.6003 77 11.6831 77.1647 11.6831C77.3294 11.766 77.5765 11.8489 77.6588 12.0146C77.8235 12.1803 77.9059 12.346 77.9882 12.5117C78.0706 12.6774 78.0706 12.926 78.0706 13.1746C78.0706 13.4231 77.9882 13.6717 77.9882 13.8374C77.9059 14.0031 77.8235 14.1688 77.6588 14.3346C77.4941 14.5003 77.3294 14.5831 77.1647 14.666C77 14.7489 76.7529 14.7488 76.5059 14.7488H73.4588V19.6374H74.9412V15.9917H76.5882C77 15.9917 77.4118 15.9088 77.7412 15.826C78.1529 15.7431 78.4823 15.4946 78.7294 15.246C78.9765 14.9974 79.2235 14.666 79.3882 14.3346C79.5529 14.0031 79.6353 13.5889 79.6353 13.0917C79.4706 12.7603 79.3882 12.346 79.2235 12.0146Z" fill="#29304A"/>
    <path d="M104.506 15.5774V14.2517H100.8V11.6831H105.082V10.3574H99.3176V15.5774H100.635H104.506Z" fill="#29304A"/>
    <path d="M100.8 18.4775V16.3232H99.3177V19.7204H105.165V18.4775H100.8Z" fill="#29304A"/>
</svg>
